<svg xmlns="http://www.w3.org/2000/svg" viewBox="0 0 25.6 25.6"><g fill="none" stroke="#fff"><path d="M18.983 18.636c.163-1.357.114-1.555 1.124-1.336l.257.023c.777.035 1.793-.125 2.4-.402 1.285-.596 2.047-1.592.78-1.33-2.89.596-3.1-.383-3.1-.383 3.053-4.53 4.33-10.28 3.227-11.687-3.004-3.84-8.205-2.024-8.292-1.976l-.028.005c-.57-.12-1.2-.19-1.93-.2-1.308-.02-2.3.343-3.054.914 0 0-9.277-3.822-8.846 4.807.092 1.836 2.63 13.9 5.66 10.25 1.109-1.334 2.179-2.461 2.179-2.461.53.353 1.167.533 1.834.468l.052-.044a2.01 2.01 0 0 0 .021.518c-.78.872-.55 1.025-2.11 1.346-1.578.325-.65.904-.046 1.056.734.184 2.432.444 3.58-1.162l-.046.183c.306.245.285 1.76.33 2.842s.116 2.093.337 2.688.48 2.13 2.53 1.7c1.713-.367 3.023-.896 3.143-5.81" fill="#000" stroke="#000" stroke-width="2.149"/><path d="M23.535 15.6c-2.89.596-3.1-.383-3.1-.383 3.053-4.53 4.33-10.28 3.228-11.687-3.004-3.84-8.205-2.023-8.292-1.976l-.028.005a10.31 10.31 0 0 0-1.929-.201c-1.308-.02-2.3.343-3.054.914 0 0-9.278-3.822-8.846 4.807.092 1.836 2.63 13.9 5.66 10.25 1.116-1.342 2.186-2.469 2.186-2.469.53.353 1.167.533 1.834.468l.052-.044a2.02 2.02 0 0 0 .021.518c-.78.872-.55 1.025-2.11 1.346-1.578.325-.65.904-.046 1.056.734.184 2.432.444 3.58-1.162l-.046.183c.306.245.52 1.593.484 2.815s-.06 2.06.18 2.716.48 2.13 2.53 1.7c1.713-.367 2.6-.782 2.6-5.784 0-.742.28-3.322.38-3.968.09-.56.293-.96.4-1.23.02-.08.02-.107.02-.107s-.61-.03-1.02-.03c-.822 0-1.164.114-1.164.114s-.307.924 0 2.684c.44 2.517-.857 5.235-1.336 5.863s-.842 1.068-.538.615c.306-.454 1.337-2.678.708-5.093-.62-2.414-.38-5.333-.38-5.333s-.189-.01-.69-.01c-.45 0-.678.015-.678.015s-.408 4.72-.826 5.64c-.417.92-.577 1.426-.577 1.426s.185-.764.36-2.178c.163-1.357.114-1.555 1.124-1.336l.257.023c.777.035 1.794-.125 2.4-.402 1.285-.596 2.047-1.592.78-1.33z" stroke-width=".716"/></g><g fill="#fff"><path d="M20.425 15.17s.637.597-.697 1.194c-1.285.596-2.302.756-3.079.72l-.257-.023c-1.01-.22-.96-.02-1.124 1.336-.175 1.414-.36 2.178-.36 2.178s.16-.505.577-1.426c.418-.92.826-5.64.826-5.64s.228-.015.678-.015c.5 0 .69.01.69.01s-.24 2.92.38 5.333c.63 2.414-.4 4.64-.707 5.093s.06-.013.538-.615 1.777-3.346 1.336-5.863c-.306-1.76 0-2.684 0-2.684s.342-.114 1.164-.114c.41 0 1.02.03 1.02.03s0 .027-.02.107c-.107.27-.31.67-.4 1.23-.1.646-.38 3.226-.38 3.968 0 5.002-.887 5.417-2.6 5.784-2.05.43-2.27-.993-2.53-1.7s-.216-1.494-.18-2.716-.178-2.57-.484-2.815l.046-.183c-1.148 1.606-2.846 1.346-3.58 1.162-.604-.152-1.532-.73.046-1.056 1.56-.32 1.33-.474 2.11-1.346a2.02 2.02 0 0 1-.021-.518l-.052.044c-.667.065-1.304-.115-1.834-.468 0 0-1.07 1.127-2.186 2.469-3.03 3.65-5.568-8.414-5.66-10.25-.432-8.63 8.846-4.807 8.846-4.807.754-.57 1.746-.934 3.054-.914.647.01 1.273.079 1.93.2l.028-.005c.087-.048 5.288-1.864 8.292 1.976 1.102 1.407-.175 7.157-3.228 11.687 0 0 .21.98 3.1.383 1.267-.262.505.734-.78 1.33z"/><path d="M12.113 11.624c-.148.02-.257.14-.257.275 0 .18.194.31.395.31.2 0 .362-.13.362-.31 0-.18-.194-.31-.395-.31a.51.51 0 0 0-.105.035zm6.502 1.032c.056.1.15.262.178.372.028.11.05.274.05.366s.006.202.013.255c.02.145.153.423.153.423s-.14-.21-.165-.368c-.025-.16-.033-.32-.02-.47.014-.15.072-.36.072-.36s-.182-.208-.28-.218zm-6.976-.132c-.103.03-.24.135-.307.234-.066.1-.182.32-.182.32s.124-.15.22-.24c.096-.09.25-.18.25-.18s-.052-.105-.14-.105c-.02 0-.058-.003-.103.01zm1.458 1.634c.08.055.305.183.305.183s.055-.073.094-.12c.04-.048.106-.106.147-.13.04-.024.167-.085.167-.085s-.167.024-.255.055c-.088.03-.228.085-.304.134s-.153.134-.153.134zm-2.436.06c.08.055.305.183.305.183s.055-.073.094-.12c.04-.048.106-.106.147-.13.04-.024.167-.085.167-.085s-.167.024-.255.055c-.088.03-.228.085-.304.134s-.153.134-.153.134z"/></g></svg> 